<mxfile host="Electron" modified="2024-05-06T09:15:13.047Z" agent="Mozilla/5.0 (Windows NT 10.0; Win64; x64) AppleWebKit/537.36 (KHTML, like Gecko) draw.io/24.2.5 Chrome/120.0.6099.109 Electron/28.1.0 Safari/537.36" etag="rngykiefA8ie5z2u901g" version="24.2.5" type="device">
  <diagram name="Page-1" id="ku7vt0NzBj5o8nes5fj5">
    <mxGraphModel dx="2261" dy="2005" grid="1" gridSize="10" guides="1" tooltips="1" connect="1" arrows="1" fold="1" page="1" pageScale="1" pageWidth="827" pageHeight="1169" math="0" shadow="0">
      <root>
        <mxCell id="0" />
        <mxCell id="1" parent="0" />
        <mxCell id="G7PxSzfKfo2Uq9OIjsVH-11" value="" style="ellipse;shape=cloud;whiteSpace=wrap;html=1;" vertex="1" parent="1">
          <mxGeometry x="-20" y="-110" width="730" height="630" as="geometry" />
        </mxCell>
        <mxCell id="G7PxSzfKfo2Uq9OIjsVH-1" value="Page de recherche de serveur" style="rounded=0;whiteSpace=wrap;html=1;" vertex="1" parent="1">
          <mxGeometry x="130" y="130" width="130" height="100" as="geometry" />
        </mxCell>
        <mxCell id="G7PxSzfKfo2Uq9OIjsVH-2" value="échec, envoi d&#39;un&lt;div&gt;message d&#39;erreur&lt;/div&gt;" style="endArrow=classic;html=1;rounded=0;exitX=1;exitY=1;exitDx=0;exitDy=0;entryX=0.75;entryY=1;entryDx=0;entryDy=0;strokeColor=#FF2200;" edge="1" parent="1" source="G7PxSzfKfo2Uq9OIjsVH-1" target="G7PxSzfKfo2Uq9OIjsVH-1">
          <mxGeometry width="50" height="50" relative="1" as="geometry">
            <mxPoint x="220" y="300" as="sourcePoint" />
            <mxPoint x="200" y="310" as="targetPoint" />
            <Array as="points">
              <mxPoint x="260" y="280" />
              <mxPoint x="228" y="280" />
            </Array>
          </mxGeometry>
        </mxCell>
        <mxCell id="G7PxSzfKfo2Uq9OIjsVH-3" value="Serveur SRS" style="image;points=[];aspect=fixed;html=1;align=center;shadow=0;dashed=0;image=img/lib/allied_telesis/computer_and_terminals/Server_Desktop.svg;" vertex="1" parent="1">
          <mxGeometry x="428.3" y="290" width="42.599999999999994" height="54" as="geometry" />
        </mxCell>
        <mxCell id="G7PxSzfKfo2Uq9OIjsVH-4" value="Téléphone quelconque" style="verticalLabelPosition=bottom;verticalAlign=top;html=1;shadow=0;dashed=0;strokeWidth=1;shape=mxgraph.android.phone2;strokeColor=#c0c0c0;fillColor=#1A1A1A;" vertex="1" parent="1">
          <mxGeometry x="434.6" y="150" width="30" height="60" as="geometry" />
        </mxCell>
        <mxCell id="G7PxSzfKfo2Uq9OIjsVH-5" value="Pc quelconque" style="image;points=[];aspect=fixed;html=1;align=center;shadow=0;dashed=0;image=img/lib/allied_telesis/computer_and_terminals/Laptop.svg;" vertex="1" parent="1">
          <mxGeometry x="422.1" y="40" width="55" height="55.79" as="geometry" />
        </mxCell>
        <mxCell id="G7PxSzfKfo2Uq9OIjsVH-8" value="Tentative d&#39;appel du port&lt;div&gt;échec&lt;/div&gt;" style="endArrow=classic;startArrow=classic;html=1;rounded=0;exitX=1;exitY=0;exitDx=0;exitDy=0;fillColor=#f8cecc;strokeColor=#ff0000;entryX=-0.011;entryY=0.538;entryDx=0;entryDy=0;entryPerimeter=0;" edge="1" parent="1" source="G7PxSzfKfo2Uq9OIjsVH-1" target="G7PxSzfKfo2Uq9OIjsVH-5">
          <mxGeometry width="50" height="50" relative="1" as="geometry">
            <mxPoint x="210" y="400" as="sourcePoint" />
            <mxPoint x="390" y="70" as="targetPoint" />
            <Array as="points">
              <mxPoint x="260" y="68" />
            </Array>
          </mxGeometry>
        </mxCell>
        <mxCell id="G7PxSzfKfo2Uq9OIjsVH-9" value="Tentative d&#39;appel du port&lt;div&gt;échec&lt;/div&gt;" style="endArrow=classic;startArrow=classic;html=1;rounded=0;entryX=0;entryY=0.517;entryDx=0;entryDy=0;entryPerimeter=0;exitX=1;exitY=0.5;exitDx=0;exitDy=0;fillColor=#f8cecc;strokeColor=#ff2200;" edge="1" parent="1" source="G7PxSzfKfo2Uq9OIjsVH-1" target="G7PxSzfKfo2Uq9OIjsVH-4">
          <mxGeometry width="50" height="50" relative="1" as="geometry">
            <mxPoint x="270" y="220" as="sourcePoint" />
            <mxPoint x="320" y="170" as="targetPoint" />
          </mxGeometry>
        </mxCell>
        <mxCell id="G7PxSzfKfo2Uq9OIjsVH-10" value="Tentative d&#39;appel du port&lt;div&gt;Réussite&lt;/div&gt;" style="endArrow=classic;startArrow=classic;html=1;rounded=0;entryX=0.016;entryY=0.5;entryDx=0;entryDy=0;entryPerimeter=0;exitX=1;exitY=1;exitDx=0;exitDy=0;fillColor=#d5e8d4;strokeColor=#82b366;" edge="1" parent="1" source="G7PxSzfKfo2Uq9OIjsVH-1" target="G7PxSzfKfo2Uq9OIjsVH-3">
          <mxGeometry x="-0.0624" width="50" height="50" relative="1" as="geometry">
            <mxPoint x="210" y="370" as="sourcePoint" />
            <mxPoint x="260" y="320" as="targetPoint" />
            <Array as="points">
              <mxPoint x="350" y="230" />
              <mxPoint x="350" y="317" />
            </Array>
            <mxPoint as="offset" />
          </mxGeometry>
        </mxCell>
        <mxCell id="G7PxSzfKfo2Uq9OIjsVH-13" value="" style="endArrow=classic;html=1;rounded=0;" edge="1" parent="1" source="G7PxSzfKfo2Uq9OIjsVH-11">
          <mxGeometry width="50" height="50" relative="1" as="geometry">
            <mxPoint x="500" y="90" as="sourcePoint" />
            <mxPoint x="550" y="40" as="targetPoint" />
          </mxGeometry>
        </mxCell>
        <mxCell id="G7PxSzfKfo2Uq9OIjsVH-14" value="Même réseau" style="ellipse;whiteSpace=wrap;html=1;aspect=fixed;" vertex="1" parent="1">
          <mxGeometry x="600" y="-80" width="90" height="90" as="geometry" />
        </mxCell>
        <mxCell id="G7PxSzfKfo2Uq9OIjsVH-15" value="Suite de l&#39;application" style="rounded=0;whiteSpace=wrap;html=1;" vertex="1" parent="1">
          <mxGeometry x="90" y="320" width="120" height="37" as="geometry" />
        </mxCell>
        <mxCell id="G7PxSzfKfo2Uq9OIjsVH-16" value="Réussite&lt;div&gt;Redirection&lt;/div&gt;" style="endArrow=classic;html=1;rounded=0;exitX=0.25;exitY=1;exitDx=0;exitDy=0;entryX=0.592;entryY=0.027;entryDx=0;entryDy=0;entryPerimeter=0;fillColor=#d5e8d4;strokeColor=#82b366;" edge="1" parent="1" source="G7PxSzfKfo2Uq9OIjsVH-1" target="G7PxSzfKfo2Uq9OIjsVH-15">
          <mxGeometry width="50" height="50" relative="1" as="geometry">
            <mxPoint x="-140" y="350" as="sourcePoint" />
            <mxPoint x="163" y="310" as="targetPoint" />
          </mxGeometry>
        </mxCell>
        <mxCell id="G7PxSzfKfo2Uq9OIjsVH-17" value="&lt;h1 style=&quot;margin-top: 0px;&quot;&gt;&lt;font style=&quot;font-size: 18px;&quot;&gt;User story : recherche automatique de serveur&lt;/font&gt;&lt;/h1&gt;&lt;p style=&quot;margin-bottom: 12px; line-height: 154%;&quot;&gt;&lt;font size=&quot;3&quot;&gt;Qui : Administrateur&lt;br&gt;Quoi : Recherche de serveur SRS dans un réseau&lt;/font&gt;&lt;/p&gt;&lt;p style=&quot;margin-bottom: 12px;&quot;&gt;&lt;font size=&quot;3&quot;&gt;Pourquoi : Se connecter au serveur pour accèder au système&lt;/font&gt;&lt;/p&gt;" style="text;html=1;whiteSpace=wrap;overflow=hidden;rounded=0;" vertex="1" parent="1">
          <mxGeometry x="20" y="-220" width="550" height="130" as="geometry" />
        </mxCell>
      </root>
    </mxGraphModel>
  </diagram>
</mxfile>
